<mxfile host="app.diagrams.net" modified="2022-01-07T02:55:42.625Z" agent="5.0 (Windows NT 6.1; Win64; x64) AppleWebKit/537.36 (KHTML, like Gecko) Chrome/96.0.4664.45 Safari/537.36" etag="nTHGExMzewZLnkR-VbG2" version="16.2.2" type="github">
  <diagram id="7kC9viG3TArmNpTOzyJ8" name="Page-1">
    <mxGraphModel dx="4691" dy="861" grid="1" gridSize="10" guides="1" tooltips="1" connect="1" arrows="1" fold="1" page="1" pageScale="1" pageWidth="3300" pageHeight="4681" math="0" shadow="0">
      <root>
        <mxCell id="0" />
        <mxCell id="1" parent="0" />
        <mxCell id="HefbfKOfJk3_JUuj_Y7m-10" style="edgeStyle=orthogonalEdgeStyle;rounded=0;orthogonalLoop=1;jettySize=auto;html=1;exitX=1;exitY=0.5;exitDx=0;exitDy=0;entryX=0;entryY=0.5;entryDx=0;entryDy=0;" parent="1" source="HefbfKOfJk3_JUuj_Y7m-1" target="HefbfKOfJk3_JUuj_Y7m-2" edge="1">
          <mxGeometry relative="1" as="geometry" />
        </mxCell>
        <mxCell id="HefbfKOfJk3_JUuj_Y7m-1" value="" style="ellipse;whiteSpace=wrap;html=1;fillColor=#990000;" parent="1" vertex="1">
          <mxGeometry x="50" y="305" width="50" height="30" as="geometry" />
        </mxCell>
        <mxCell id="HefbfKOfJk3_JUuj_Y7m-11" style="edgeStyle=orthogonalEdgeStyle;rounded=0;orthogonalLoop=1;jettySize=auto;html=1;exitX=1;exitY=0.5;exitDx=0;exitDy=0;entryX=0;entryY=0.5;entryDx=0;entryDy=0;" parent="1" source="HefbfKOfJk3_JUuj_Y7m-2" target="HefbfKOfJk3_JUuj_Y7m-3" edge="1">
          <mxGeometry relative="1" as="geometry" />
        </mxCell>
        <mxCell id="HefbfKOfJk3_JUuj_Y7m-2" value="" style="ellipse;whiteSpace=wrap;html=1;fillColor=#660066;" parent="1" vertex="1">
          <mxGeometry x="150" y="305" width="50" height="30" as="geometry" />
        </mxCell>
        <mxCell id="lBaTM03E_NYDaA1DDpVY-1" style="edgeStyle=orthogonalEdgeStyle;rounded=0;orthogonalLoop=1;jettySize=auto;html=1;exitX=1;exitY=0.5;exitDx=0;exitDy=0;" parent="1" source="HefbfKOfJk3_JUuj_Y7m-3" target="HefbfKOfJk3_JUuj_Y7m-4" edge="1">
          <mxGeometry relative="1" as="geometry" />
        </mxCell>
        <mxCell id="HefbfKOfJk3_JUuj_Y7m-3" value="" style="ellipse;whiteSpace=wrap;html=1;fillColor=#660066;" parent="1" vertex="1">
          <mxGeometry x="250" y="305" width="50" height="30" as="geometry" />
        </mxCell>
        <mxCell id="_ufB6UjlI4cqtm0IFFnp-21" style="edgeStyle=orthogonalEdgeStyle;rounded=0;orthogonalLoop=1;jettySize=auto;html=1;exitX=1;exitY=0.5;exitDx=0;exitDy=0;entryX=0;entryY=0.5;entryDx=0;entryDy=0;" parent="1" source="HefbfKOfJk3_JUuj_Y7m-4" target="HefbfKOfJk3_JUuj_Y7m-5" edge="1">
          <mxGeometry relative="1" as="geometry" />
        </mxCell>
        <mxCell id="HefbfKOfJk3_JUuj_Y7m-4" value="" style="ellipse;whiteSpace=wrap;html=1;fillColor=#000099;" parent="1" vertex="1">
          <mxGeometry x="339" y="305" width="50" height="30" as="geometry" />
        </mxCell>
        <mxCell id="HefbfKOfJk3_JUuj_Y7m-14" style="edgeStyle=orthogonalEdgeStyle;rounded=0;orthogonalLoop=1;jettySize=auto;html=1;exitX=1;exitY=0.5;exitDx=0;exitDy=0;entryX=0;entryY=0.5;entryDx=0;entryDy=0;" parent="1" source="HefbfKOfJk3_JUuj_Y7m-5" target="HefbfKOfJk3_JUuj_Y7m-6" edge="1">
          <mxGeometry relative="1" as="geometry" />
        </mxCell>
        <mxCell id="HefbfKOfJk3_JUuj_Y7m-5" value="" style="ellipse;whiteSpace=wrap;html=1;fillColor=#000099;" parent="1" vertex="1">
          <mxGeometry x="430" y="305" width="50" height="30" as="geometry" />
        </mxCell>
        <mxCell id="HefbfKOfJk3_JUuj_Y7m-16" style="edgeStyle=orthogonalEdgeStyle;rounded=0;orthogonalLoop=1;jettySize=auto;html=1;exitX=1;exitY=0.5;exitDx=0;exitDy=0;" parent="1" source="HefbfKOfJk3_JUuj_Y7m-6" target="HefbfKOfJk3_JUuj_Y7m-7" edge="1">
          <mxGeometry relative="1" as="geometry" />
        </mxCell>
        <mxCell id="gW2EclscfzrbcfECS6mx-6" style="edgeStyle=orthogonalEdgeStyle;rounded=0;orthogonalLoop=1;jettySize=auto;html=1;exitX=0.5;exitY=0;exitDx=0;exitDy=0;entryX=0.5;entryY=1;entryDx=0;entryDy=0;" parent="1" source="HefbfKOfJk3_JUuj_Y7m-6" target="HefbfKOfJk3_JUuj_Y7m-22" edge="1">
          <mxGeometry relative="1" as="geometry" />
        </mxCell>
        <mxCell id="HefbfKOfJk3_JUuj_Y7m-6" value="" style="ellipse;whiteSpace=wrap;html=1;" parent="1" vertex="1">
          <mxGeometry x="540" y="305" width="50" height="30" as="geometry" />
        </mxCell>
        <mxCell id="HefbfKOfJk3_JUuj_Y7m-18" style="edgeStyle=orthogonalEdgeStyle;rounded=0;orthogonalLoop=1;jettySize=auto;html=1;exitX=1;exitY=0.5;exitDx=0;exitDy=0;entryX=0;entryY=0.5;entryDx=0;entryDy=0;" parent="1" source="HefbfKOfJk3_JUuj_Y7m-7" target="HefbfKOfJk3_JUuj_Y7m-8" edge="1">
          <mxGeometry relative="1" as="geometry" />
        </mxCell>
        <mxCell id="HefbfKOfJk3_JUuj_Y7m-7" value="" style="ellipse;whiteSpace=wrap;html=1;" parent="1" vertex="1">
          <mxGeometry x="620" y="305" width="50" height="30" as="geometry" />
        </mxCell>
        <mxCell id="HefbfKOfJk3_JUuj_Y7m-19" style="edgeStyle=orthogonalEdgeStyle;rounded=0;orthogonalLoop=1;jettySize=auto;html=1;exitX=1;exitY=0.5;exitDx=0;exitDy=0;entryX=0;entryY=0.5;entryDx=0;entryDy=0;" parent="1" source="HefbfKOfJk3_JUuj_Y7m-8" target="HefbfKOfJk3_JUuj_Y7m-9" edge="1">
          <mxGeometry relative="1" as="geometry" />
        </mxCell>
        <mxCell id="HefbfKOfJk3_JUuj_Y7m-8" value="" style="ellipse;whiteSpace=wrap;html=1;" parent="1" vertex="1">
          <mxGeometry x="710" y="305" width="50" height="30" as="geometry" />
        </mxCell>
        <mxCell id="HefbfKOfJk3_JUuj_Y7m-9" value="" style="ellipse;whiteSpace=wrap;html=1;" parent="1" vertex="1">
          <mxGeometry x="800" y="305" width="50" height="30" as="geometry" />
        </mxCell>
        <mxCell id="HefbfKOfJk3_JUuj_Y7m-20" value="dev" style="text;html=1;strokeColor=none;fillColor=none;align=center;verticalAlign=middle;whiteSpace=wrap;rounded=0;" parent="1" vertex="1">
          <mxGeometry x="-120" y="270" width="40" height="20" as="geometry" />
        </mxCell>
        <mxCell id="HefbfKOfJk3_JUuj_Y7m-26" style="edgeStyle=orthogonalEdgeStyle;rounded=0;orthogonalLoop=1;jettySize=auto;html=1;exitX=1;exitY=0.5;exitDx=0;exitDy=0;" parent="1" source="HefbfKOfJk3_JUuj_Y7m-22" target="HefbfKOfJk3_JUuj_Y7m-23" edge="1">
          <mxGeometry relative="1" as="geometry" />
        </mxCell>
        <mxCell id="HefbfKOfJk3_JUuj_Y7m-22" value="" style="ellipse;whiteSpace=wrap;html=1;fillColor=#000066;" parent="1" vertex="1">
          <mxGeometry x="535" y="240" width="50" height="30" as="geometry" />
        </mxCell>
        <mxCell id="HefbfKOfJk3_JUuj_Y7m-27" style="edgeStyle=orthogonalEdgeStyle;rounded=0;orthogonalLoop=1;jettySize=auto;html=1;exitX=1;exitY=0.5;exitDx=0;exitDy=0;" parent="1" source="HefbfKOfJk3_JUuj_Y7m-23" target="HefbfKOfJk3_JUuj_Y7m-24" edge="1">
          <mxGeometry relative="1" as="geometry" />
        </mxCell>
        <mxCell id="_ufB6UjlI4cqtm0IFFnp-32" style="edgeStyle=orthogonalEdgeStyle;rounded=0;orthogonalLoop=1;jettySize=auto;html=1;exitX=0.5;exitY=0;exitDx=0;exitDy=0;entryX=0.5;entryY=1;entryDx=0;entryDy=0;" parent="1" source="HefbfKOfJk3_JUuj_Y7m-23" target="_ufB6UjlI4cqtm0IFFnp-23" edge="1">
          <mxGeometry relative="1" as="geometry" />
        </mxCell>
        <mxCell id="HefbfKOfJk3_JUuj_Y7m-23" value="" style="ellipse;whiteSpace=wrap;html=1;fillColor=#000066;" parent="1" vertex="1">
          <mxGeometry x="615" y="240" width="50" height="30" as="geometry" />
        </mxCell>
        <mxCell id="_ufB6UjlI4cqtm0IFFnp-12" style="edgeStyle=orthogonalEdgeStyle;rounded=0;orthogonalLoop=1;jettySize=auto;html=1;exitX=1;exitY=0.5;exitDx=0;exitDy=0;entryX=0;entryY=0.5;entryDx=0;entryDy=0;" parent="1" source="HefbfKOfJk3_JUuj_Y7m-24" target="_ufB6UjlI4cqtm0IFFnp-10" edge="1">
          <mxGeometry relative="1" as="geometry" />
        </mxCell>
        <mxCell id="HefbfKOfJk3_JUuj_Y7m-24" value="" style="ellipse;whiteSpace=wrap;html=1;fillColor=#0000CC;" parent="1" vertex="1">
          <mxGeometry x="695" y="240" width="50" height="30" as="geometry" />
        </mxCell>
        <mxCell id="_ufB6UjlI4cqtm0IFFnp-1" value="&lt;b&gt;发布分支:&lt;/b&gt;基于dev拉取分支5.22.21B4" style="text;html=1;strokeColor=none;fillColor=none;align=center;verticalAlign=middle;whiteSpace=wrap;rounded=0;" parent="1" vertex="1">
          <mxGeometry x="310" y="230" width="205" height="20" as="geometry" />
        </mxCell>
        <mxCell id="_ufB6UjlI4cqtm0IFFnp-18" style="edgeStyle=orthogonalEdgeStyle;rounded=0;orthogonalLoop=1;jettySize=auto;html=1;exitX=1;exitY=0.5;exitDx=0;exitDy=0;" parent="1" source="_ufB6UjlI4cqtm0IFFnp-10" target="_ufB6UjlI4cqtm0IFFnp-11" edge="1">
          <mxGeometry relative="1" as="geometry" />
        </mxCell>
        <mxCell id="_ufB6UjlI4cqtm0IFFnp-10" value="" style="ellipse;whiteSpace=wrap;html=1;fillColor=#0000CC;" parent="1" vertex="1">
          <mxGeometry x="775" y="240" width="50" height="30" as="geometry" />
        </mxCell>
        <mxCell id="lBaTM03E_NYDaA1DDpVY-18" style="edgeStyle=orthogonalEdgeStyle;rounded=0;orthogonalLoop=1;jettySize=auto;html=1;exitX=1;exitY=0.5;exitDx=0;exitDy=0;" parent="1" source="_ufB6UjlI4cqtm0IFFnp-11" edge="1">
          <mxGeometry relative="1" as="geometry">
            <mxPoint x="935" y="257" as="targetPoint" />
          </mxGeometry>
        </mxCell>
        <mxCell id="_ufB6UjlI4cqtm0IFFnp-11" value="" style="ellipse;whiteSpace=wrap;html=1;rotation=5;fillColor=#9999FF;" parent="1" vertex="1">
          <mxGeometry x="855" y="240" width="50" height="30" as="geometry" />
        </mxCell>
        <mxCell id="_ufB6UjlI4cqtm0IFFnp-33" style="edgeStyle=orthogonalEdgeStyle;rounded=0;orthogonalLoop=1;jettySize=auto;html=1;exitX=1;exitY=0.5;exitDx=0;exitDy=0;entryX=0;entryY=0.5;entryDx=0;entryDy=0;" parent="1" source="_ufB6UjlI4cqtm0IFFnp-23" target="_ufB6UjlI4cqtm0IFFnp-24" edge="1">
          <mxGeometry relative="1" as="geometry" />
        </mxCell>
        <mxCell id="_ufB6UjlI4cqtm0IFFnp-23" value="" style="ellipse;whiteSpace=wrap;html=1;fillColor=#330000;" parent="1" vertex="1">
          <mxGeometry x="615" y="160" width="50" height="30" as="geometry" />
        </mxCell>
        <mxCell id="_ufB6UjlI4cqtm0IFFnp-34" style="edgeStyle=orthogonalEdgeStyle;rounded=0;orthogonalLoop=1;jettySize=auto;html=1;exitX=1;exitY=0.5;exitDx=0;exitDy=0;" parent="1" source="_ufB6UjlI4cqtm0IFFnp-24" target="_ufB6UjlI4cqtm0IFFnp-25" edge="1">
          <mxGeometry relative="1" as="geometry" />
        </mxCell>
        <mxCell id="_ufB6UjlI4cqtm0IFFnp-38" style="edgeStyle=orthogonalEdgeStyle;rounded=0;orthogonalLoop=1;jettySize=auto;html=1;exitX=0.5;exitY=0;exitDx=0;exitDy=0;" parent="1" source="_ufB6UjlI4cqtm0IFFnp-24" target="_ufB6UjlI4cqtm0IFFnp-28" edge="1">
          <mxGeometry relative="1" as="geometry" />
        </mxCell>
        <mxCell id="_ufB6UjlI4cqtm0IFFnp-24" value="" style="ellipse;whiteSpace=wrap;html=1;fillColor=#330000;" parent="1" vertex="1">
          <mxGeometry x="695" y="160" width="50" height="30" as="geometry" />
        </mxCell>
        <mxCell id="_ufB6UjlI4cqtm0IFFnp-35" style="edgeStyle=orthogonalEdgeStyle;rounded=0;orthogonalLoop=1;jettySize=auto;html=1;exitX=1;exitY=0.5;exitDx=0;exitDy=0;entryX=0;entryY=0.5;entryDx=0;entryDy=0;" parent="1" source="_ufB6UjlI4cqtm0IFFnp-25" target="_ufB6UjlI4cqtm0IFFnp-26" edge="1">
          <mxGeometry relative="1" as="geometry" />
        </mxCell>
        <mxCell id="_ufB6UjlI4cqtm0IFFnp-25" value="" style="ellipse;whiteSpace=wrap;html=1;fillColor=#FF0000;" parent="1" vertex="1">
          <mxGeometry x="775" y="160" width="50" height="30" as="geometry" />
        </mxCell>
        <mxCell id="_ufB6UjlI4cqtm0IFFnp-37" style="edgeStyle=orthogonalEdgeStyle;rounded=0;orthogonalLoop=1;jettySize=auto;html=1;exitX=1;exitY=0.5;exitDx=0;exitDy=0;entryX=0;entryY=0.5;entryDx=0;entryDy=0;" parent="1" source="_ufB6UjlI4cqtm0IFFnp-26" target="_ufB6UjlI4cqtm0IFFnp-27" edge="1">
          <mxGeometry relative="1" as="geometry" />
        </mxCell>
        <mxCell id="_ufB6UjlI4cqtm0IFFnp-26" value="" style="ellipse;whiteSpace=wrap;html=1;fillColor=#FF0000;" parent="1" vertex="1">
          <mxGeometry x="855" y="160" width="50" height="30" as="geometry" />
        </mxCell>
        <mxCell id="lBaTM03E_NYDaA1DDpVY-4" style="edgeStyle=orthogonalEdgeStyle;rounded=0;orthogonalLoop=1;jettySize=auto;html=1;exitX=1;exitY=0.5;exitDx=0;exitDy=0;" parent="1" source="_ufB6UjlI4cqtm0IFFnp-27" target="lBaTM03E_NYDaA1DDpVY-3" edge="1">
          <mxGeometry relative="1" as="geometry" />
        </mxCell>
        <mxCell id="_ufB6UjlI4cqtm0IFFnp-27" value="" style="ellipse;whiteSpace=wrap;html=1;fillColor=#FF9999;" parent="1" vertex="1">
          <mxGeometry x="935" y="160" width="50" height="30" as="geometry" />
        </mxCell>
        <mxCell id="_ufB6UjlI4cqtm0IFFnp-39" style="edgeStyle=orthogonalEdgeStyle;rounded=0;orthogonalLoop=1;jettySize=auto;html=1;exitX=1;exitY=0.5;exitDx=0;exitDy=0;entryX=0;entryY=0.5;entryDx=0;entryDy=0;" parent="1" source="_ufB6UjlI4cqtm0IFFnp-28" target="_ufB6UjlI4cqtm0IFFnp-29" edge="1">
          <mxGeometry relative="1" as="geometry" />
        </mxCell>
        <mxCell id="_ufB6UjlI4cqtm0IFFnp-28" value="" style="ellipse;whiteSpace=wrap;html=1;fillColor=#994C00;" parent="1" vertex="1">
          <mxGeometry x="695" y="80" width="50" height="30" as="geometry" />
        </mxCell>
        <mxCell id="_ufB6UjlI4cqtm0IFFnp-40" style="edgeStyle=orthogonalEdgeStyle;rounded=0;orthogonalLoop=1;jettySize=auto;html=1;exitX=1;exitY=0.5;exitDx=0;exitDy=0;entryX=0;entryY=0.5;entryDx=0;entryDy=0;" parent="1" source="_ufB6UjlI4cqtm0IFFnp-29" target="_ufB6UjlI4cqtm0IFFnp-30" edge="1">
          <mxGeometry relative="1" as="geometry" />
        </mxCell>
        <mxCell id="_ufB6UjlI4cqtm0IFFnp-29" value="" style="ellipse;whiteSpace=wrap;html=1;fillColor=#994C00;" parent="1" vertex="1">
          <mxGeometry x="775" y="80" width="50" height="30" as="geometry" />
        </mxCell>
        <mxCell id="_ufB6UjlI4cqtm0IFFnp-41" style="edgeStyle=orthogonalEdgeStyle;rounded=0;orthogonalLoop=1;jettySize=auto;html=1;exitX=1;exitY=0.5;exitDx=0;exitDy=0;entryX=0;entryY=0.5;entryDx=0;entryDy=0;" parent="1" source="_ufB6UjlI4cqtm0IFFnp-30" target="_ufB6UjlI4cqtm0IFFnp-31" edge="1">
          <mxGeometry relative="1" as="geometry" />
        </mxCell>
        <mxCell id="_ufB6UjlI4cqtm0IFFnp-30" value="" style="ellipse;whiteSpace=wrap;html=1;fillColor=#994C00;" parent="1" vertex="1">
          <mxGeometry x="865" y="80" width="50" height="30" as="geometry" />
        </mxCell>
        <mxCell id="_ufB6UjlI4cqtm0IFFnp-31" value="" style="ellipse;whiteSpace=wrap;html=1;fillColor=#994C00;" parent="1" vertex="1">
          <mxGeometry x="955" y="80" width="50" height="30" as="geometry" />
        </mxCell>
        <mxCell id="_ufB6UjlI4cqtm0IFFnp-42" value="&lt;b&gt;全量补丁分支:&lt;/b&gt;基于5.22.21B4拉取分支5.22.21P1" style="text;html=1;strokeColor=none;fillColor=none;align=center;verticalAlign=middle;whiteSpace=wrap;rounded=0;" parent="1" vertex="1">
          <mxGeometry x="305" y="160" width="280" height="20" as="geometry" />
        </mxCell>
        <mxCell id="_ufB6UjlI4cqtm0IFFnp-43" value="&lt;b&gt;热补丁分支:&lt;/b&gt;基于5.22.21P1拉取分支5.22.21HP1" style="text;html=1;strokeColor=none;fillColor=none;align=center;verticalAlign=middle;whiteSpace=wrap;rounded=0;" parent="1" vertex="1">
          <mxGeometry x="300" y="85" width="290" height="20" as="geometry" />
        </mxCell>
        <mxCell id="_ufB6UjlI4cqtm0IFFnp-49" value="tag:V5.22.21" style="text;html=1;strokeColor=none;fillColor=none;align=center;verticalAlign=middle;whiteSpace=wrap;rounded=0;" parent="1" vertex="1">
          <mxGeometry x="685" y="210" width="120" height="20" as="geometry" />
        </mxCell>
        <mxCell id="_ufB6UjlI4cqtm0IFFnp-50" value="tag:V5.22.21SP01" style="text;html=1;strokeColor=none;fillColor=none;align=center;verticalAlign=middle;whiteSpace=wrap;rounded=0;" parent="1" vertex="1">
          <mxGeometry x="835" y="210" width="110" height="20" as="geometry" />
        </mxCell>
        <mxCell id="_ufB6UjlI4cqtm0IFFnp-51" value="tag:V5.22.21P1SP01" style="text;html=1;strokeColor=none;fillColor=none;align=center;verticalAlign=middle;whiteSpace=wrap;rounded=0;" parent="1" vertex="1">
          <mxGeometry x="785" y="130" width="110" height="20" as="geometry" />
        </mxCell>
        <mxCell id="_ufB6UjlI4cqtm0IFFnp-52" value="tag:V5.22.21P1SP02" style="text;html=1;strokeColor=none;fillColor=none;align=center;verticalAlign=middle;whiteSpace=wrap;rounded=0;" parent="1" vertex="1">
          <mxGeometry x="925" y="130" width="130" height="20" as="geometry" />
        </mxCell>
        <mxCell id="lBaTM03E_NYDaA1DDpVY-3" value="" style="ellipse;whiteSpace=wrap;html=1;fillColor=#FF9999;" parent="1" vertex="1">
          <mxGeometry x="1005" y="160" width="50" height="30" as="geometry" />
        </mxCell>
        <mxCell id="lBaTM03E_NYDaA1DDpVY-5" value="tag:V5.22.21HP1" style="text;html=1;strokeColor=none;fillColor=none;align=center;verticalAlign=middle;whiteSpace=wrap;rounded=0;" parent="1" vertex="1">
          <mxGeometry x="680" y="30" width="110" height="20" as="geometry" />
        </mxCell>
        <mxCell id="lBaTM03E_NYDaA1DDpVY-6" value="tag:V&lt;span style=&quot;color: rgb(49 , 59 , 64) ; font-family: &amp;#34;microsoft yahei&amp;#34; , &amp;#34;segoe ui&amp;#34; , &amp;#34;helvetica&amp;#34; , &amp;#34;arial&amp;#34; , sans-serif ; text-align: left ; background-color: rgb(255 , 255 , 255)&quot;&gt;&lt;font style=&quot;font-size: 12px&quot;&gt;5.22.21&lt;/font&gt;&lt;/span&gt;" style="text;html=1;strokeColor=none;fillColor=none;align=center;verticalAlign=middle;whiteSpace=wrap;rounded=0;" parent="1" vertex="1">
          <mxGeometry x="490" y="210" width="140" height="20" as="geometry" />
        </mxCell>
        <mxCell id="lBaTM03E_NYDaA1DDpVY-23" style="edgeStyle=orthogonalEdgeStyle;rounded=0;orthogonalLoop=1;jettySize=auto;html=1;exitX=1;exitY=0.5;exitDx=0;exitDy=0;" parent="1" source="lBaTM03E_NYDaA1DDpVY-11" edge="1">
          <mxGeometry relative="1" as="geometry">
            <mxPoint x="1005" y="257" as="targetPoint" />
          </mxGeometry>
        </mxCell>
        <mxCell id="lBaTM03E_NYDaA1DDpVY-11" value="" style="ellipse;whiteSpace=wrap;html=1;rotation=5;fillColor=#9999FF;" parent="1" vertex="1">
          <mxGeometry x="935" y="240" width="50" height="30" as="geometry" />
        </mxCell>
        <mxCell id="lBaTM03E_NYDaA1DDpVY-24" style="edgeStyle=orthogonalEdgeStyle;rounded=0;orthogonalLoop=1;jettySize=auto;html=1;exitX=1;exitY=0.5;exitDx=0;exitDy=0;" parent="1" source="lBaTM03E_NYDaA1DDpVY-19" edge="1">
          <mxGeometry relative="1" as="geometry">
            <mxPoint x="1085" y="257" as="targetPoint" />
          </mxGeometry>
        </mxCell>
        <mxCell id="lBaTM03E_NYDaA1DDpVY-19" value="" style="ellipse;whiteSpace=wrap;html=1;rotation=5;fillColor=#00FF00;" parent="1" vertex="1">
          <mxGeometry x="1005" y="240" width="50" height="30" as="geometry" />
        </mxCell>
        <mxCell id="lBaTM03E_NYDaA1DDpVY-20" value="" style="ellipse;whiteSpace=wrap;html=1;rotation=5;fillColor=#00FF00;" parent="1" vertex="1">
          <mxGeometry x="1085" y="240" width="50" height="30" as="geometry" />
        </mxCell>
        <mxCell id="lBaTM03E_NYDaA1DDpVY-25" value="tag:V5.22.21SP02" style="text;html=1;strokeColor=none;fillColor=none;align=center;verticalAlign=middle;whiteSpace=wrap;rounded=0;" parent="1" vertex="1">
          <mxGeometry x="995" y="210" width="110" height="20" as="geometry" />
        </mxCell>
        <mxCell id="gW2EclscfzrbcfECS6mx-12" style="edgeStyle=orthogonalEdgeStyle;rounded=0;orthogonalLoop=1;jettySize=auto;html=1;exitX=1;exitY=0.5;exitDx=0;exitDy=0;entryX=0;entryY=0.5;entryDx=0;entryDy=0;fontSize=12;" parent="1" source="gW2EclscfzrbcfECS6mx-7" target="HefbfKOfJk3_JUuj_Y7m-1" edge="1">
          <mxGeometry relative="1" as="geometry" />
        </mxCell>
        <mxCell id="gW2EclscfzrbcfECS6mx-7" value="" style="ellipse;whiteSpace=wrap;html=1;fillColor=#990000;" parent="1" vertex="1">
          <mxGeometry x="-30" y="305" width="50" height="30" as="geometry" />
        </mxCell>
        <mxCell id="gW2EclscfzrbcfECS6mx-9" style="edgeStyle=orthogonalEdgeStyle;rounded=0;orthogonalLoop=1;jettySize=auto;html=1;exitX=1;exitY=0.5;exitDx=0;exitDy=0;entryX=0;entryY=0.5;entryDx=0;entryDy=0;fontSize=12;" parent="1" source="gW2EclscfzrbcfECS6mx-8" target="gW2EclscfzrbcfECS6mx-7" edge="1">
          <mxGeometry relative="1" as="geometry" />
        </mxCell>
        <mxCell id="gW2EclscfzrbcfECS6mx-8" value="" style="ellipse;whiteSpace=wrap;html=1;" parent="1" vertex="1">
          <mxGeometry x="-110" y="305" width="50" height="30" as="geometry" />
        </mxCell>
        <mxCell id="gW2EclscfzrbcfECS6mx-14" value="tag:V5.22.21B1" style="text;html=1;strokeColor=none;fillColor=none;align=center;verticalAlign=middle;whiteSpace=wrap;rounded=0;" parent="1" vertex="1">
          <mxGeometry x="-25" y="270" width="40" height="20" as="geometry" />
        </mxCell>
        <mxCell id="gW2EclscfzrbcfECS6mx-15" value="tag:V5.22.21B2" style="text;html=1;strokeColor=none;fillColor=none;align=center;verticalAlign=middle;whiteSpace=wrap;rounded=0;" parent="1" vertex="1">
          <mxGeometry x="140" y="270" width="40" height="20" as="geometry" />
        </mxCell>
        <mxCell id="gW2EclscfzrbcfECS6mx-17" value="tag:V5.22.21B3" style="text;html=1;strokeColor=none;fillColor=none;align=center;verticalAlign=middle;whiteSpace=wrap;rounded=0;" parent="1" vertex="1">
          <mxGeometry x="349" y="270" width="40" height="20" as="geometry" />
        </mxCell>
      </root>
    </mxGraphModel>
  </diagram>
</mxfile>
